<svg width="707" height="211" viewBox="0 0 707 211" fill="none" xmlns="http://www.w3.org/2000/svg">
<path opacity="0.8" fill-rule="evenodd" clip-rule="evenodd" d="M165.9 136.921C189.136 134.425 207.23 114.751 207.23 90.8519C207.23 65.2612 186.485 44.5159 160.895 44.5159C139.574 44.5159 121.617 58.9152 116.218 78.5192C127.242 75.5541 141.208 74.1045 154.318 76.5027C164.835 111.113 167.157 127.132 165.9 136.921ZM138.549 131.453C127.521 125.371 119.236 114.926 116.021 102.445C125.351 99.4015 139.545 97.2009 152.524 97.4286C155.812 107.892 158.204 118.653 157.606 127.024C156.643 127.181 155.689 127.332 154.747 127.481C148.577 128.456 142.915 129.351 138.549 131.453Z" fill="#E09914"/>
<g opacity="0.8">
<mask id="path-2-inside-1_1_44" fill="white">
<path fill-rule="evenodd" clip-rule="evenodd" d="M147.545 128.713C151.309 120.978 153.421 112.29 153.421 103.108C153.421 102.104 153.396 101.106 153.346 100.114C153.079 99.2181 152.805 98.3223 152.524 97.4286C135.484 97.1296 116.352 101.016 108.879 105.5C109.039 106.625 109.07 106.929 109.117 107.231C109.244 108.053 109.486 108.857 112.765 126.127C116.95 146.754 102.601 156.619 95.1273 157.815C87.6538 159.011 75.3971 156.918 74.5003 147.053C73.6035 137.188 79.5823 131.209 103.498 127.921C102.743 119.809 100.917 110.627 99.2219 102.1C98.2306 97.1144 97.2838 92.353 96.622 88.1614C101.706 81.7396 124.273 73.8808 146.531 75.5178C136.665 57.0681 117.213 44.5159 94.8284 44.5159C62.4686 44.5159 36.2358 70.7487 36.2358 103.108C36.2358 135.468 62.4686 161.701 94.8284 161.701C108.13 161.701 120.397 157.268 130.232 149.799C129.876 148.629 129.72 147.317 129.805 145.857C130.259 134.048 137.614 130.692 147.545 128.713Z"/>
</mask>
<path fill-rule="evenodd" clip-rule="evenodd" d="M147.545 128.713C151.309 120.978 153.421 112.29 153.421 103.108C153.421 102.104 153.396 101.106 153.346 100.114C153.079 99.2181 152.805 98.3223 152.524 97.4286C135.484 97.1296 116.352 101.016 108.879 105.5C109.039 106.625 109.07 106.929 109.117 107.231C109.244 108.053 109.486 108.857 112.765 126.127C116.95 146.754 102.601 156.619 95.1273 157.815C87.6538 159.011 75.3971 156.918 74.5003 147.053C73.6035 137.188 79.5823 131.209 103.498 127.921C102.743 119.809 100.917 110.627 99.2219 102.1C98.2306 97.1144 97.2838 92.353 96.622 88.1614C101.706 81.7396 124.273 73.8808 146.531 75.5178C136.665 57.0681 117.213 44.5159 94.8284 44.5159C62.4686 44.5159 36.2358 70.7487 36.2358 103.108C36.2358 135.468 62.4686 161.701 94.8284 161.701C108.13 161.701 120.397 157.268 130.232 149.799C129.876 148.629 129.72 147.317 129.805 145.857C130.259 134.048 137.614 130.692 147.545 128.713Z" fill="#201029"/>
<path d="M147.545 128.713L147.741 129.694L148.227 129.597L148.444 129.151L147.545 128.713ZM153.346 100.114L154.345 100.064L154.339 99.9444L154.304 99.8295L153.346 100.114ZM152.524 97.4286L153.478 97.1288L153.262 96.4414L152.542 96.4287L152.524 97.4286ZM108.879 105.5L108.364 104.643L107.795 104.984L107.889 105.641L108.879 105.5ZM109.117 107.231L110.105 107.078L110.105 107.078L109.117 107.231ZM112.765 126.127L111.782 126.314L111.785 126.326L112.765 126.127ZM74.5003 147.053L75.4962 146.962L75.4962 146.962L74.5003 147.053ZM103.498 127.921L103.634 128.911L104.582 128.781L104.493 127.828L103.498 127.921ZM99.2219 102.1L100.203 101.905L100.203 101.905L99.2219 102.1ZM96.622 88.1614L95.838 87.5407L95.5659 87.8844L95.6342 88.3173L96.622 88.1614ZM146.531 75.5178L146.458 76.5151L148.27 76.6484L147.413 75.0463L146.531 75.5178ZM130.232 149.799L130.837 150.596L131.391 150.175L131.189 149.508L130.232 149.799ZM129.805 145.857L130.803 145.915L130.803 145.905L130.804 145.896L129.805 145.857ZM152.421 103.108C152.421 112.135 150.345 120.673 146.646 128.275L148.444 129.151C152.273 121.282 154.421 112.444 154.421 103.108H152.421ZM152.347 100.165C152.396 101.14 152.421 102.121 152.421 103.108H154.421C154.421 102.088 154.395 101.073 154.345 100.064L152.347 100.165ZM154.304 99.8295C154.036 98.9279 153.76 98.0271 153.478 97.1288L151.57 97.7284C151.85 98.6174 152.122 99.5083 152.387 100.399L154.304 99.8295ZM152.542 96.4287C143.946 96.2779 134.834 97.1822 126.927 98.6883C119.051 100.189 112.257 102.307 108.364 104.643L109.393 106.358C112.974 104.209 119.483 102.142 127.301 100.653C135.088 99.1697 144.063 98.2803 152.507 98.4284L152.542 96.4287ZM107.889 105.641C108.043 106.72 108.083 107.086 108.129 107.384L110.105 107.078C110.058 106.772 110.036 106.53 109.869 105.359L107.889 105.641ZM108.129 107.384C108.259 108.226 108.512 109.087 111.782 126.314L113.747 125.94C110.46 108.627 110.229 107.879 110.105 107.078L108.129 107.384ZM111.785 126.326C113.821 136.362 111.343 143.688 107.526 148.648C103.675 153.65 98.4416 156.272 94.9693 156.827L95.2853 158.802C99.2865 158.162 104.965 155.253 109.111 149.868C113.29 144.439 115.894 136.519 113.745 125.928L111.785 126.326ZM94.9693 156.827C91.3729 157.403 86.6256 157.18 82.7116 155.65C78.8255 154.131 75.8994 151.397 75.4962 146.962L73.5044 147.143C73.9981 152.574 77.6486 155.819 81.9835 157.513C86.2904 159.197 91.4081 159.423 95.2853 158.802L94.9693 156.827ZM75.4962 146.962C75.2817 144.602 75.4853 142.549 76.2168 140.739C76.9445 138.939 78.2234 137.308 80.2776 135.833C84.4373 132.846 91.6981 130.552 103.634 128.911L103.361 126.93C91.3819 128.577 83.6956 130.917 79.1112 134.208C76.7934 135.872 75.2511 137.791 74.3626 139.989C73.478 142.178 73.2706 144.571 73.5044 147.143L75.4962 146.962ZM104.493 127.828C103.733 119.655 101.896 110.419 100.203 101.905L98.2411 102.295C99.939 110.834 101.753 119.963 102.502 128.013L104.493 127.828ZM100.203 101.905C99.2103 96.914 98.2679 92.1735 97.6098 88.0054L95.6342 88.3173C96.2998 92.5325 97.2508 97.3148 98.2411 102.295L100.203 101.905ZM97.4061 88.7821C98.5428 87.3462 100.753 85.7301 103.888 84.138C106.997 82.5587 110.928 81.0473 115.409 79.7798C124.373 77.244 135.461 75.7064 146.458 76.5151L146.605 74.5205C135.343 73.6923 124.019 75.2655 114.864 77.8553C110.285 79.1506 106.229 80.7056 102.982 82.3548C99.7602 83.9912 97.2432 85.7657 95.838 87.5407L97.4061 88.7821ZM94.8284 45.5159C116.829 45.5159 135.951 57.852 145.65 75.9894L147.413 75.0463C137.38 56.2842 117.596 43.5159 94.8284 43.5159V45.5159ZM37.2358 103.108C37.2358 71.301 63.0209 45.5159 94.8284 45.5159V43.5159C61.9163 43.5159 35.2358 70.1964 35.2358 103.108H37.2358ZM94.8284 160.701C63.0209 160.701 37.2358 134.916 37.2358 103.108H35.2358C35.2358 136.021 61.9163 162.701 94.8284 162.701V160.701ZM129.627 149.003C119.96 156.344 107.905 160.701 94.8284 160.701V162.701C108.356 162.701 120.834 158.192 130.837 150.596L129.627 149.003ZM131.189 149.508C130.87 148.461 130.725 147.268 130.803 145.915L128.806 145.8C128.716 147.365 128.882 148.796 129.275 150.09L131.189 149.508ZM130.804 145.896C131.022 140.221 132.879 136.722 135.754 134.373C138.689 131.976 142.801 130.678 147.741 129.694L147.35 127.732C142.358 128.727 137.827 130.097 134.488 132.824C131.089 135.601 129.041 139.684 128.805 145.819L130.804 145.896Z" fill="black" mask="url(#path-2-inside-1_1_44)"/>
</g>
<path opacity="0.8" fill-rule="evenodd" clip-rule="evenodd" d="M116.651 195.78C157.761 195.78 191.088 162.454 191.088 121.344C191.088 80.2338 157.761 46.9074 116.651 46.9074C75.541 46.9074 42.2146 80.2338 42.2146 121.344C42.2146 162.454 75.541 195.78 116.651 195.78ZM103.498 127.921C79.5823 131.209 73.6035 137.188 74.5003 147.053C75.3972 156.918 87.6538 159.011 95.1273 157.815C102.601 156.619 116.95 146.754 112.765 126.127C109.486 108.857 109.244 108.053 109.117 107.231C109.07 106.929 109.039 106.625 108.879 105.5C116.352 101.016 135.484 97.1296 152.524 97.4286C155.812 107.892 158.204 118.653 157.606 127.024C156.643 127.181 155.689 127.332 154.747 127.481C141.359 129.597 130.363 131.334 129.805 145.857C128.908 161.402 155.215 160.206 161.193 149.743C167.172 139.28 170.76 130.611 154.318 76.5026C129.805 72.0185 102.302 80.9868 96.622 88.1614C97.2838 92.353 98.2306 97.1143 99.2219 102.1C100.917 110.627 102.743 119.809 103.498 127.921Z" fill="#42B2B8"/>
<circle opacity="0.8" cx="208.127" cy="136.291" r="6.27778" fill="#E8729E"/>
<circle opacity="0.8" cx="44.9051" cy="183.524" r="6.87566" fill="#E09914"/>
<circle opacity="0.8" cx="23.0823" cy="121.643" r="5.38095" fill="#201029"/>
<circle opacity="0.8" cx="231.146" cy="114.468" r="12.5556" fill="#42B2B8"/>
<circle opacity="0.8" cx="132.196" cy="26.2804" r="11.0608" fill="#E8729E"/>
<path opacity="0.8" fill-rule="evenodd" clip-rule="evenodd" d="M106.826 151.018C107.806 173.924 126.686 192.193 149.834 192.193C173.608 192.193 192.881 172.92 192.881 149.145C192.881 129.929 180.289 113.653 162.907 108.119C168.911 134.851 165.746 141.777 161.193 149.743C155.215 160.206 128.908 161.402 129.805 145.857C130.363 131.334 141.359 129.597 154.747 127.481C155.689 127.332 156.643 127.181 157.606 127.024C158.033 121.047 156.936 113.85 155.076 106.414C153.358 106.205 151.608 106.098 149.834 106.098C134.169 106.098 120.458 114.465 112.927 126.974C114.936 138.075 111.524 145.976 106.826 151.018Z" fill="#E8729E"/>
<path d="M74.5003 147.053C73.6035 137.188 79.5824 131.209 103.498 127.921C102.302 115.066 98.4157 99.5211 96.622 88.1614C102.302 80.9868 129.805 72.0185 154.318 76.5026C170.76 130.611 167.172 139.28 161.193 149.743C155.215 160.206 128.908 161.402 129.805 145.857C130.402 130.312 142.958 129.415 157.606 127.024C158.204 118.653 155.813 107.892 152.524 97.4286C135.484 97.1296 116.352 101.016 108.879 105.5C109.477 109.685 108.281 102.511 112.765 126.127C116.95 146.754 102.601 156.619 95.1273 157.815C87.6538 159.011 75.3972 156.918 74.5003 147.053Z" fill="white"/>
<path d="M278.605 96.324C278.957 92.364 279.265 89.68 279.529 88.272C280.057 85.28 280.937 82.816 282.169 80.88C281.729 80.704 280.893 80.484 279.661 80.22C278.429 79.956 277.593 79.692 277.153 79.428C276.185 78.548 275.701 77.316 275.701 75.732C275.701 72.652 276.669 70.716 278.605 69.924C284.941 67.46 291.453 66.228 298.141 66.228C313.893 66.228 326.873 72.08 337.081 83.784C337.169 85.016 337.213 86.16 337.213 87.216C337.213 96.808 331.933 104.816 321.373 111.24C316.885 113.968 307.249 118.016 292.465 123.384C292.201 125.584 292.421 128.488 293.125 132.096C293.917 136.144 294.313 138.916 294.313 140.412C294.313 141.644 294.181 142.788 293.917 143.844C293.301 145.78 292.069 147.408 290.221 148.728C288.461 150.048 286.437 150.708 284.149 150.708C283.269 150.708 282.389 150.62 281.509 150.444C281.509 150.444 280.541 149.432 278.605 147.408C277.637 140.016 277.153 132.228 277.153 124.044C277.153 116.124 277.637 106.884 278.605 96.324ZM293.125 93.288C293.125 94.432 292.905 96.28 292.465 98.832C292.025 101.296 291.805 103.012 291.805 103.98C291.805 106.18 292.509 107.544 293.917 108.072C295.325 108.512 296.821 108.732 298.405 108.732C303.333 108.732 308.261 106.796 313.189 102.924C318.117 99.052 321.197 94.652 322.429 89.724C312.133 81.98 303.817 78.108 297.481 78.108C295.809 78.108 294.137 78.328 292.465 78.768C292.377 78.768 292.773 79.208 293.653 80.088C294.797 81.232 295.369 82.244 295.369 83.124C295.369 84.356 294.973 86.072 294.181 88.272C293.477 90.472 293.125 92.144 293.125 93.288Z" fill="#201029"/>
<path d="M371.218 153.48C370.514 153.04 369.766 152.072 368.974 150.576C368.27 149.344 367.61 148.728 366.994 148.728C362.33 147.936 357.622 147.144 352.87 146.352C347.678 145.032 343.982 142.48 341.782 138.696C340.374 136.848 339.67 134.384 339.67 131.304C339.67 126.816 340.77 123.12 342.97 120.216C348.25 113.088 355.994 109.524 366.202 109.524C370.602 109.524 372.714 109.656 372.538 109.92C373.242 108.864 373.594 107.368 373.594 105.432C373.594 103.144 372.934 101.868 371.614 101.604C370.294 101.252 368.974 101.076 367.654 101.076C365.366 101.076 362.814 101.648 359.998 102.792C357.27 103.848 354.586 104.86 351.946 105.828C351.506 106.004 351.11 106.092 350.758 106.092C349.35 106.092 348.206 105.08 347.326 103.056C346.622 101.472 346.27 99.756 346.27 97.908C346.27 96.764 346.402 96.06 346.666 95.796C352.474 91.836 359.03 89.856 366.334 89.856C373.99 89.856 379.138 92.584 381.778 98.04C383.186 101.032 383.89 104.288 383.89 107.808C383.89 110.712 383.318 114.804 382.174 120.084C380.854 125.892 380.062 130.116 379.798 132.756C379.358 139.356 378.918 143.844 378.478 146.22C377.422 151.588 375.75 154.272 373.462 154.272C372.758 154.272 372.01 154.008 371.218 153.48ZM368.842 137.508C369.106 136.276 369.678 134.076 370.558 130.908C371.35 128.444 371.746 126.42 371.746 124.836C371.746 122.988 371.35 121.14 370.558 119.292C366.07 120.26 361.626 121.184 357.226 122.064C352.034 123.56 349.394 126.64 349.306 131.304C349.218 133.328 351.154 135.044 355.114 136.452C358.546 137.772 361.978 138.432 365.41 138.432C367.434 138.432 368.578 138.124 368.842 137.508Z" fill="#201029"/>
<path d="M389.238 105.3C389.326 104.772 389.106 104.024 388.578 103.056C388.05 102.088 387.786 101.384 387.786 100.944C387.786 100.504 387.874 100.152 388.05 99.888C389.194 98.92 389.81 97.028 389.898 94.212C389.986 91.308 390.778 89.372 392.274 88.404C394.298 86.996 396.278 86.292 398.214 86.292C400.062 86.292 401.514 86.996 402.57 88.404C403.274 89.02 403.67 90.252 403.758 92.1C403.846 93.86 404.066 94.828 404.418 95.004C421.93 96.94 430.202 102.792 429.234 112.56C428.442 119.776 424.306 124.792 416.826 127.608C410.314 129.368 403.802 131.128 397.29 132.888C396.322 137.552 395.838 141.468 395.838 144.636C395.838 148.684 396.938 154.448 399.138 161.928C399.226 162.28 399.798 163.16 400.854 164.568C401.91 165.976 402.438 167.12 402.438 168C402.438 169.848 400.634 170.772 397.026 170.772C395.266 170.772 393.682 170.508 392.274 169.98C390.162 169.188 388.666 167.34 387.786 164.436C387.346 163.116 386.862 160.344 386.334 156.12C385.806 152.248 385.542 148.2 385.542 143.976C385.542 138.608 385.982 132.14 386.862 124.572C387.654 118.148 388.446 111.724 389.238 105.3ZM403.23 105.96C402.086 107.104 401.074 108.952 400.194 111.504C399.402 113.968 399.006 116.212 399.006 118.236C399.006 120.348 399.446 121.624 400.326 122.064C401.206 122.416 402.306 122.592 403.626 122.592C406.53 122.592 409.302 121.624 411.942 119.688C414.67 117.664 416.254 114.98 416.694 111.636C417.134 108.644 415.638 106.752 412.206 105.96C410.358 105.168 408.554 104.772 406.794 104.772C405.122 104.772 403.934 105.168 403.23 105.96Z" fill="#201029"/>
<path d="M432.105 113.484C432.017 107.5 433.777 102.528 437.385 98.568C440.993 94.52 445.613 92.496 451.245 92.496C457.229 92.496 462.509 94.784 467.085 99.36C471.749 103.848 474.037 109.128 473.949 115.2C473.157 117.664 469.857 120.612 464.049 124.044C456.833 128.356 452.829 130.908 452.037 131.7C450.541 132.404 449.793 133.152 449.793 133.944C449.793 135.352 450.761 136.628 452.697 137.772C454.633 138.828 456.349 139.356 457.845 139.356C460.749 139.356 464.929 137.948 470.385 135.132C472.057 136.364 472.893 138.036 472.893 140.148C472.893 141.82 472.365 143.36 471.309 144.768C470.253 146.176 468.889 147.012 467.217 147.276C461.585 148.156 458.021 148.596 456.525 148.596C453.533 148.596 450.849 148.068 448.473 147.012C438.001 142.348 432.545 131.172 432.105 113.484ZM446.493 120.216C454.325 119.864 459.077 117.092 460.749 111.9C461.101 111.196 461.277 110.492 461.277 109.788C461.277 107.94 460.309 106.444 458.373 105.3C456.437 104.156 454.281 103.584 451.905 103.584C450.145 103.584 448.649 103.936 447.417 104.64C444.865 105.96 443.589 108.732 443.589 112.956C443.589 117.62 444.557 120.04 446.493 120.216Z" fill="#201029"/>
<path d="M479.871 109.788C479.695 108.38 478.991 106.048 477.759 102.792C476.615 99.8 476.043 97.512 476.043 95.928C476.043 93.816 476.835 92.056 478.419 90.648C480.003 89.152 481.675 88.404 483.435 88.404C485.723 88.404 487.703 89.504 489.375 91.704C491.047 93.816 491.883 96.324 491.883 99.228C491.883 99.844 491.839 100.46 491.751 101.076C494.039 100.724 496.811 98.876 500.067 95.532C503.059 92.364 505.787 90.78 508.251 90.78C509.131 90.78 510.055 90.912 511.023 91.176C514.719 92.672 516.567 94.124 516.567 95.532C516.567 96.236 516.259 96.984 515.643 97.776C513.971 100.152 510.891 103.188 506.403 106.884C502.003 110.492 498.879 113.66 497.031 116.388C496.415 117.356 496.019 118.94 495.843 121.14C495.755 123.34 495.447 124.88 494.919 125.76C494.479 126.552 494.259 127.52 494.259 128.664C494.259 130.512 494.963 132.36 496.371 134.208C497.515 135.616 498.087 137.42 498.087 139.62C498.087 142.876 497.075 145.472 495.051 147.408C493.731 149.52 491.751 150.576 489.111 150.576C486.911 150.576 485.151 149.74 483.831 148.068C482.335 147.1 481.675 145.12 481.851 142.128C482.203 134.296 481.543 123.516 479.871 109.788Z" fill="#201029"/>
<path d="M518.711 123.384C518.711 117.84 519.327 114.012 520.559 111.9C522.759 109.612 525.399 108.468 528.479 108.468C532.175 108.468 534.023 110.36 534.023 114.144C534.023 115.728 533.583 117.356 532.703 119.028C531.823 120.612 531.383 122.636 531.383 125.1C531.383 129.852 533.099 132.888 536.531 134.208C537.675 134.648 538.907 134.868 540.227 134.868C543.747 134.868 545.903 133.592 546.695 131.04C548.015 127.168 548.675 123.076 548.675 118.764C548.675 113.132 547.531 106.576 545.243 99.096C542.955 92.76 540.711 86.38 538.511 79.956C537.895 78.284 538.071 76.568 539.039 74.808C539.743 73.664 541.151 72.96 543.263 72.696C545.463 72.344 546.827 71.772 547.355 70.98C547.883 71.508 549.115 71.948 551.051 72.3C552.459 72.652 553.163 73.268 553.163 74.148C553.691 78.46 555.583 86.204 558.839 97.38C561.567 107.06 562.931 114.672 562.931 120.216C562.931 125.32 562.007 129.984 560.159 134.208C557.079 141.248 550.347 144.768 539.963 144.768C536.795 144.768 533.319 144.46 529.535 143.844C524.959 142.964 521.879 140.368 520.295 136.056C519.239 133.152 518.711 128.928 518.711 123.384Z" fill="#201029"/>
<path d="M601.187 153.48C600.483 153.04 599.735 152.072 598.943 150.576C598.239 149.344 597.579 148.728 596.963 148.728C592.299 147.936 587.591 147.144 582.839 146.352C577.647 145.032 573.951 142.48 571.751 138.696C570.343 136.848 569.639 134.384 569.639 131.304C569.639 126.816 570.739 123.12 572.939 120.216C578.219 113.088 585.963 109.524 596.171 109.524C600.571 109.524 602.683 109.656 602.507 109.92C603.211 108.864 603.563 107.368 603.563 105.432C603.563 103.144 602.903 101.868 601.583 101.604C600.263 101.252 598.943 101.076 597.623 101.076C595.335 101.076 592.783 101.648 589.967 102.792C587.239 103.848 584.555 104.86 581.915 105.828C581.475 106.004 581.079 106.092 580.727 106.092C579.319 106.092 578.175 105.08 577.295 103.056C576.591 101.472 576.239 99.756 576.239 97.908C576.239 96.764 576.371 96.06 576.635 95.796C582.443 91.836 588.999 89.856 596.303 89.856C603.959 89.856 609.107 92.584 611.747 98.04C613.155 101.032 613.859 104.288 613.859 107.808C613.859 110.712 613.287 114.804 612.143 120.084C610.823 125.892 610.031 130.116 609.767 132.756C609.327 139.356 608.887 143.844 608.447 146.22C607.391 151.588 605.719 154.272 603.431 154.272C602.727 154.272 601.979 154.008 601.187 153.48ZM598.811 137.508C599.075 136.276 599.647 134.076 600.527 130.908C601.319 128.444 601.715 126.42 601.715 124.836C601.715 122.988 601.319 121.14 600.527 119.292C596.039 120.26 591.595 121.184 587.195 122.064C582.003 123.56 579.363 126.64 579.275 131.304C579.187 133.328 581.123 135.044 585.083 136.452C588.515 137.772 591.947 138.432 595.379 138.432C597.403 138.432 598.547 138.124 598.811 137.508Z" fill="#201029"/>
<path d="M616.039 108.072C616.039 99.624 618.943 95.4 624.751 95.4C625.807 95.4 626.951 95.576 628.183 95.928C630.647 96.632 631.879 98.304 631.879 100.944C631.879 101.824 631.703 103.232 631.351 105.168C631.087 107.104 630.955 108.512 630.955 109.392C630.955 111.152 631.307 112.56 632.011 113.616C633.771 112.032 635.663 109.304 637.687 105.432C640.063 101.032 641.823 98.172 642.967 96.852C645.079 94.212 647.543 92.892 650.359 92.892C651.767 92.892 653.307 93.244 654.979 93.948L657.619 96.456C657.971 97.864 658.323 100.46 658.675 104.244C659.027 107.412 659.555 109.876 660.259 111.636C663.251 108.292 666.199 104.948 669.103 101.604C672.975 97.996 676.671 96.192 680.191 96.192C681.863 96.192 683.535 96.5 685.207 97.116C686.527 97.996 687.319 99.492 687.583 101.604C687.671 103.364 687.759 105.168 687.847 107.016C688.815 114.144 689.299 120.524 689.299 126.156C689.299 136.276 687.715 145.428 684.547 153.612C683.755 156.34 681.511 157.704 677.815 157.704C675.791 157.704 673.855 157.176 672.007 156.12C671.655 156.12 671.391 155.636 671.215 154.668C671.039 153.524 671.083 152.512 671.347 151.632C673.987 144.504 675.307 136.584 675.307 127.872C675.307 122.944 674.867 117.752 673.987 112.296C673.987 111.68 673.811 111.372 673.459 111.372C672.403 111.372 671.479 112.12 670.687 113.616C666.199 120.92 662.063 129.852 658.279 140.412C657.663 141.732 656.431 142.92 654.583 143.976C652.823 145.032 651.063 145.56 649.303 145.56C647.191 145.56 645.651 144.724 644.683 143.052C643.715 141.292 643.231 139.224 643.231 136.848C643.231 135.264 643.495 132.756 644.023 129.324C644.551 125.892 644.815 123.296 644.815 121.536C644.815 119.336 644.507 117.356 643.891 115.596C642.483 118.06 640.239 122.724 637.159 129.588C634.607 135.396 632.275 139.884 630.163 143.052C628.755 144.988 626.643 145.956 623.827 145.956C620.923 145.956 619.031 144.944 618.151 142.92C617.359 140.808 616.831 138.256 616.567 135.264C616.391 133.064 616.347 130.248 616.435 126.816C616.611 121.624 616.699 118.72 616.699 118.104C616.699 116.96 616.567 115.288 616.303 113.088C616.127 110.8 616.039 109.128 616.039 108.072Z" fill="#201029"/>
</svg>
