<svg width="707" height="211" viewBox="0 0 707 211" fill="none" xmlns="http://www.w3.org/2000/svg">
<rect width="707" height="211" fill="white"/>
<path opacity="0.8" fill-rule="evenodd" clip-rule="evenodd" d="M165.9 136.921C189.136 134.425 207.23 114.751 207.23 90.8518C207.23 65.2612 186.485 44.5159 160.894 44.5159C139.574 44.5159 121.617 58.9151 116.218 78.5192C127.242 75.5541 141.208 74.1044 154.318 76.5026C164.835 111.113 167.157 127.132 165.9 136.921ZM138.549 131.453C127.521 125.371 119.236 114.926 116.021 102.445C125.351 99.4015 139.545 97.2009 152.524 97.4286C155.812 107.892 158.204 118.653 157.606 127.024C156.643 127.181 155.689 127.332 154.746 127.481C148.577 128.456 142.915 129.351 138.549 131.453Z" fill="#E09914"/>
<g opacity="0.8">
<mask id="path-2-inside-1_1_44" fill="white">
<path fill-rule="evenodd" clip-rule="evenodd" d="M147.545 128.713C151.309 120.978 153.421 112.29 153.421 103.108C153.421 102.104 153.396 101.106 153.346 100.114C153.079 99.2181 152.805 98.3223 152.524 97.4286C135.484 97.1296 116.352 101.016 108.879 105.5C109.039 106.625 109.07 106.929 109.117 107.231C109.244 108.053 109.486 108.857 112.765 126.127C116.95 146.754 102.601 156.619 95.1273 157.815C87.6538 159.011 75.3971 156.918 74.5003 147.053C73.6035 137.188 79.5823 131.209 103.498 127.921C102.743 119.809 100.917 110.627 99.2219 102.1C98.2306 97.1144 97.2838 92.353 96.622 88.1614C101.706 81.7396 124.273 73.8808 146.531 75.5178C136.665 57.0681 117.213 44.5159 94.8284 44.5159C62.4686 44.5159 36.2358 70.7487 36.2358 103.108C36.2358 135.468 62.4686 161.701 94.8284 161.701C108.13 161.701 120.397 157.268 130.232 149.799C129.876 148.629 129.72 147.317 129.805 145.857C130.259 134.048 137.614 130.692 147.545 128.713Z"/>
</mask>
<path fill-rule="evenodd" clip-rule="evenodd" d="M147.545 128.713C151.309 120.978 153.421 112.29 153.421 103.108C153.421 102.104 153.396 101.106 153.346 100.114C153.079 99.2181 152.805 98.3223 152.524 97.4286C135.484 97.1296 116.352 101.016 108.879 105.5C109.039 106.625 109.07 106.929 109.117 107.231C109.244 108.053 109.486 108.857 112.765 126.127C116.95 146.754 102.601 156.619 95.1273 157.815C87.6538 159.011 75.3971 156.918 74.5003 147.053C73.6035 137.188 79.5823 131.209 103.498 127.921C102.743 119.809 100.917 110.627 99.2219 102.1C98.2306 97.1144 97.2838 92.353 96.622 88.1614C101.706 81.7396 124.273 73.8808 146.531 75.5178C136.665 57.0681 117.213 44.5159 94.8284 44.5159C62.4686 44.5159 36.2358 70.7487 36.2358 103.108C36.2358 135.468 62.4686 161.701 94.8284 161.701C108.13 161.701 120.397 157.268 130.232 149.799C129.876 148.629 129.72 147.317 129.805 145.857C130.259 134.048 137.614 130.692 147.545 128.713Z" fill="#201029"/>
<path d="M147.545 128.713L147.741 129.694L148.227 129.597L148.444 129.151L147.545 128.713ZM153.346 100.114L154.345 100.064L154.339 99.9444L154.304 99.8295L153.346 100.114ZM152.524 97.4286L153.478 97.1288L153.262 96.4414L152.542 96.4287L152.524 97.4286ZM108.879 105.5L108.364 104.643L107.795 104.984L107.889 105.641L108.879 105.5ZM109.117 107.231L110.105 107.078V107.078L109.117 107.231ZM112.765 126.127L111.782 126.314L111.785 126.326L112.765 126.127ZM74.5003 147.053L75.4962 146.962L74.5003 147.053ZM103.498 127.921L103.634 128.911L104.582 128.781L104.493 127.828L103.498 127.921ZM99.2219 102.1L100.203 101.905L99.2219 102.1ZM96.622 88.1614L95.838 87.5407L95.5659 87.8844L95.6342 88.3173L96.622 88.1614ZM146.531 75.5178L146.458 76.5151L148.27 76.6484L147.413 75.0463L146.531 75.5178ZM130.232 149.799L130.837 150.596L131.391 150.175L131.189 149.508L130.232 149.799ZM129.805 145.857L130.803 145.915L130.803 145.905L130.804 145.896L129.805 145.857ZM152.421 103.108C152.421 112.135 150.345 120.673 146.646 128.275L148.444 129.151C152.273 121.282 154.421 112.444 154.421 103.108H152.421ZM152.347 100.165C152.396 101.14 152.421 102.121 152.421 103.108H154.421C154.421 102.088 154.395 101.073 154.345 100.064L152.347 100.165ZM154.304 99.8295C154.036 98.9279 153.76 98.0271 153.478 97.1288L151.57 97.7284C151.85 98.6174 152.122 99.5083 152.387 100.399L154.304 99.8295ZM152.542 96.4287C143.946 96.2779 134.834 97.1822 126.927 98.6883C119.051 100.189 112.257 102.307 108.364 104.643L109.393 106.358C112.974 104.209 119.483 102.142 127.301 100.653C135.088 99.1697 144.063 98.2803 152.507 98.4284L152.542 96.4287ZM107.889 105.641C108.043 106.72 108.083 107.086 108.129 107.384L110.105 107.078C110.058 106.772 110.036 106.53 109.869 105.359L107.889 105.641ZM108.129 107.384C108.259 108.226 108.512 109.087 111.782 126.314L113.747 125.94C110.46 108.627 110.229 107.879 110.105 107.078L108.129 107.384ZM111.785 126.326C113.821 136.362 111.343 143.688 107.526 148.648C103.675 153.65 98.4416 156.272 94.9693 156.827L95.2853 158.802C99.2865 158.162 104.965 155.254 109.111 149.868C113.29 144.439 115.894 136.519 113.745 125.928L111.785 126.326ZM94.9693 156.827C91.3729 157.403 86.6256 157.18 82.7116 155.65C78.8255 154.131 75.8994 151.397 75.4962 146.962L73.5044 147.143C73.9981 152.574 77.6486 155.819 81.9835 157.513C86.2904 159.197 91.4081 159.423 95.2853 158.802L94.9693 156.827ZM75.4962 146.962C75.2817 144.602 75.4853 142.549 76.2168 140.739C76.9445 138.939 78.2234 137.308 80.2776 135.833C84.4373 132.846 91.6981 130.552 103.634 128.911L103.361 126.93C91.3819 128.577 83.6956 130.917 79.1112 134.208C76.7934 135.872 75.2511 137.791 74.3626 139.989C73.478 142.178 73.2706 144.571 73.5044 147.143L75.4962 146.962ZM104.493 127.828C103.733 119.655 101.896 110.419 100.203 101.905L98.2411 102.295C99.939 110.834 101.753 119.963 102.502 128.013L104.493 127.828ZM100.203 101.905C99.2103 96.914 98.2679 92.1735 97.6098 88.0054L95.6342 88.3173C96.2998 92.5325 97.2508 97.3148 98.2411 102.295L100.203 101.905ZM97.4061 88.7821C98.5428 87.3462 100.753 85.7301 103.888 84.138C106.997 82.5587 110.928 81.0473 115.409 79.7798C124.373 77.244 135.461 75.7064 146.458 76.5151L146.605 74.5205C135.343 73.6923 124.019 75.2655 114.864 77.8553C110.285 79.1506 106.229 80.7056 102.982 82.3548C99.7602 83.9912 97.2432 85.7657 95.838 87.5407L97.4061 88.7821ZM94.8284 45.5159C116.829 45.5159 135.951 57.852 145.65 75.9894L147.413 75.0463C137.38 56.2842 117.596 43.5159 94.8284 43.5159V45.5159ZM37.2358 103.108C37.2358 71.301 63.0209 45.5159 94.8284 45.5159V43.5159C61.9163 43.5159 35.2358 70.1964 35.2358 103.108H37.2358ZM94.8284 160.701C63.0209 160.701 37.2358 134.916 37.2358 103.108H35.2358C35.2358 136.021 61.9163 162.701 94.8284 162.701V160.701ZM129.627 149.003C119.96 156.344 107.905 160.701 94.8284 160.701V162.701C108.356 162.701 120.834 158.192 130.837 150.596L129.627 149.003ZM131.189 149.508C130.87 148.461 130.725 147.268 130.803 145.915L128.806 145.8C128.716 147.365 128.882 148.796 129.275 150.09L131.189 149.508ZM130.804 145.896C131.022 140.221 132.879 136.722 135.754 134.373C138.689 131.976 142.801 130.678 147.741 129.694L147.35 127.732C142.358 128.727 137.827 130.097 134.488 132.824C131.089 135.601 129.041 139.684 128.805 145.819L130.804 145.896Z" fill="black" mask="url(#path-2-inside-1_1_44)"/>
</g>
<path opacity="0.8" fill-rule="evenodd" clip-rule="evenodd" d="M116.651 195.78C157.761 195.78 191.088 162.454 191.088 121.344C191.088 80.2338 157.761 46.9074 116.651 46.9074C75.541 46.9074 42.2146 80.2338 42.2146 121.344C42.2146 162.454 75.541 195.78 116.651 195.78ZM103.498 127.921C79.5823 131.209 73.6035 137.188 74.5003 147.053C75.3972 156.918 87.6538 159.011 95.1273 157.815C102.601 156.619 116.95 146.754 112.765 126.127C109.486 108.857 109.244 108.053 109.117 107.231C109.07 106.929 109.039 106.625 108.879 105.5C116.352 101.016 135.484 97.1296 152.524 97.4286C155.812 107.892 158.204 118.653 157.606 127.024C156.643 127.181 155.689 127.332 154.747 127.481C141.359 129.597 130.363 131.334 129.805 145.857C128.908 161.402 155.215 160.206 161.193 149.743C167.172 139.28 170.76 130.611 154.318 76.5026C129.805 72.0185 102.302 80.9868 96.622 88.1614C97.2839 92.353 98.2306 97.1144 99.2219 102.1C100.917 110.627 102.743 119.809 103.498 127.921Z" fill="#42B2B8"/>
<circle opacity="0.8" cx="208.127" cy="136.291" r="6.27778" fill="#E8729E"/>
<circle opacity="0.8" cx="44.9051" cy="183.524" r="6.87566" fill="#E09914"/>
<circle opacity="0.8" cx="23.0823" cy="121.643" r="5.38095" fill="#201029"/>
<circle opacity="0.8" cx="231.146" cy="114.468" r="12.5556" fill="#42B2B8"/>
<circle opacity="0.8" cx="132.196" cy="26.2804" r="11.0608" fill="#E8729E"/>
<path opacity="0.8" fill-rule="evenodd" clip-rule="evenodd" d="M106.826 151.018C107.806 173.924 126.686 192.193 149.834 192.193C173.608 192.193 192.881 172.92 192.881 149.145C192.881 129.929 180.289 113.653 162.907 108.119C168.911 134.851 165.746 141.777 161.193 149.743C155.215 160.206 128.908 161.402 129.805 145.857C130.363 131.334 141.359 129.597 154.747 127.481C155.689 127.332 156.643 127.181 157.606 127.024C158.033 121.047 156.936 113.85 155.076 106.414C153.358 106.205 151.608 106.098 149.834 106.098C134.169 106.098 120.458 114.465 112.927 126.974C114.936 138.075 111.524 145.976 106.826 151.018Z" fill="#E8729E"/>
<path d="M278.605 83.324C278.957 79.364 279.265 76.68 279.529 75.272C280.057 72.28 280.937 69.816 282.169 67.88C281.729 67.704 280.893 67.484 279.661 67.22C278.429 66.956 277.593 66.692 277.153 66.428C276.185 65.548 275.701 64.316 275.701 62.732C275.701 59.652 276.669 57.716 278.605 56.924C284.941 54.46 291.453 53.228 298.141 53.228C313.893 53.228 326.873 59.08 337.081 70.784C337.169 72.016 337.213 73.16 337.213 74.216C337.213 83.808 331.933 91.816 321.373 98.24C316.885 100.968 307.249 105.016 292.465 110.384C292.201 112.584 292.421 115.488 293.125 119.096C293.917 123.144 294.313 125.916 294.313 127.412C294.313 128.644 294.181 129.788 293.917 130.844C293.301 132.78 292.069 134.408 290.221 135.728C288.461 137.048 286.437 137.708 284.149 137.708C283.269 137.708 282.389 137.62 281.509 137.444C281.509 137.444 280.541 136.432 278.605 134.408C277.637 127.016 277.153 119.228 277.153 111.044C277.153 103.124 277.637 93.884 278.605 83.324ZM293.125 80.288C293.125 81.432 292.905 83.28 292.465 85.832C292.025 88.296 291.805 90.012 291.805 90.98C291.805 93.18 292.509 94.544 293.917 95.072C295.325 95.512 296.821 95.732 298.405 95.732C303.333 95.732 308.261 93.796 313.189 89.924C318.117 86.052 321.197 81.652 322.429 76.724C312.133 68.98 303.817 65.108 297.481 65.108C295.809 65.108 294.137 65.328 292.465 65.768C292.377 65.768 292.773 66.208 293.653 67.088C294.797 68.232 295.369 69.244 295.369 70.124C295.369 71.356 294.973 73.072 294.181 75.272C293.477 77.472 293.125 79.144 293.125 80.288Z" fill="#201029"/>
<path d="M371.218 140.48C370.514 140.04 369.766 139.072 368.974 137.576C368.27 136.344 367.61 135.728 366.994 135.728C362.33 134.936 357.622 134.144 352.87 133.352C347.678 132.032 343.982 129.48 341.782 125.696C340.374 123.848 339.67 121.384 339.67 118.304C339.67 113.816 340.77 110.12 342.97 107.216C348.25 100.088 355.994 96.524 366.202 96.524C370.602 96.524 372.714 96.656 372.538 96.92C373.242 95.864 373.594 94.368 373.594 92.432C373.594 90.144 372.934 88.868 371.614 88.604C370.294 88.252 368.974 88.076 367.654 88.076C365.366 88.076 362.814 88.648 359.998 89.792C357.27 90.848 354.586 91.86 351.946 92.828C351.506 93.004 351.11 93.092 350.758 93.092C349.35 93.092 348.206 92.08 347.326 90.056C346.622 88.472 346.27 86.756 346.27 84.908C346.27 83.764 346.402 83.06 346.666 82.796C352.474 78.836 359.03 76.856 366.334 76.856C373.99 76.856 379.138 79.584 381.778 85.04C383.186 88.032 383.89 91.288 383.89 94.808C383.89 97.712 383.318 101.804 382.174 107.084C380.854 112.892 380.062 117.116 379.798 119.756C379.358 126.356 378.918 130.844 378.478 133.22C377.422 138.588 375.75 141.272 373.462 141.272C372.758 141.272 372.01 141.008 371.218 140.48ZM368.842 124.508C369.106 123.276 369.678 121.076 370.558 117.908C371.35 115.444 371.746 113.42 371.746 111.836C371.746 109.988 371.35 108.14 370.558 106.292C366.07 107.26 361.626 108.184 357.226 109.064C352.034 110.56 349.394 113.64 349.306 118.304C349.218 120.328 351.154 122.044 355.114 123.452C358.546 124.772 361.978 125.432 365.41 125.432C367.434 125.432 368.578 125.124 368.842 124.508Z" fill="#201029"/>
<path d="M389.238 92.3C389.326 91.772 389.106 91.024 388.578 90.056C388.05 89.088 387.786 88.384 387.786 87.944C387.786 87.504 387.874 87.152 388.05 86.888C389.194 85.92 389.81 84.028 389.898 81.212C389.986 78.308 390.778 76.372 392.274 75.404C394.298 73.996 396.278 73.292 398.214 73.292C400.062 73.292 401.514 73.996 402.57 75.404C403.274 76.02 403.67 77.252 403.758 79.1C403.846 80.86 404.066 81.828 404.418 82.004C421.93 83.94 430.202 89.792 429.234 99.56C428.442 106.776 424.306 111.792 416.826 114.608C410.314 116.368 403.802 118.128 397.29 119.888C396.322 124.552 395.838 128.468 395.838 131.636C395.838 135.684 396.938 141.448 399.138 148.928C399.226 149.28 399.798 150.16 400.854 151.568C401.91 152.976 402.438 154.12 402.438 155C402.438 156.848 400.634 157.772 397.026 157.772C395.266 157.772 393.682 157.508 392.274 156.98C390.162 156.188 388.666 154.34 387.786 151.436C387.346 150.116 386.862 147.344 386.334 143.12C385.806 139.248 385.542 135.2 385.542 130.976C385.542 125.608 385.982 119.14 386.862 111.572C387.654 105.148 388.446 98.724 389.238 92.3ZM403.23 92.96C402.086 94.104 401.074 95.952 400.194 98.504C399.402 100.968 399.006 103.212 399.006 105.236C399.006 107.348 399.446 108.624 400.326 109.064C401.206 109.416 402.306 109.592 403.626 109.592C406.53 109.592 409.302 108.624 411.942 106.688C414.67 104.664 416.254 101.98 416.694 98.636C417.134 95.644 415.638 93.752 412.206 92.96C410.358 92.168 408.554 91.772 406.794 91.772C405.122 91.772 403.934 92.168 403.23 92.96Z" fill="#201029"/>
<path d="M432.105 100.484C432.017 94.5 433.777 89.528 437.385 85.568C440.993 81.52 445.613 79.496 451.245 79.496C457.229 79.496 462.509 81.784 467.085 86.36C471.749 90.848 474.037 96.128 473.949 102.2C473.157 104.664 469.857 107.612 464.049 111.044C456.833 115.356 452.829 117.908 452.037 118.7C450.541 119.404 449.793 120.152 449.793 120.944C449.793 122.352 450.761 123.628 452.697 124.772C454.633 125.828 456.349 126.356 457.845 126.356C460.749 126.356 464.929 124.948 470.385 122.132C472.057 123.364 472.893 125.036 472.893 127.148C472.893 128.82 472.365 130.36 471.309 131.768C470.253 133.176 468.889 134.012 467.217 134.276C461.585 135.156 458.021 135.596 456.525 135.596C453.533 135.596 450.849 135.068 448.473 134.012C438.001 129.348 432.545 118.172 432.105 100.484ZM446.493 107.216C454.325 106.864 459.077 104.092 460.749 98.9C461.101 98.196 461.277 97.492 461.277 96.788C461.277 94.94 460.309 93.444 458.373 92.3C456.437 91.156 454.281 90.584 451.905 90.584C450.145 90.584 448.649 90.936 447.417 91.64C444.865 92.96 443.589 95.732 443.589 99.956C443.589 104.62 444.557 107.04 446.493 107.216Z" fill="#201029"/>
<path d="M479.871 96.788C479.695 95.38 478.991 93.048 477.759 89.792C476.615 86.8 476.043 84.512 476.043 82.928C476.043 80.816 476.835 79.056 478.419 77.648C480.003 76.152 481.675 75.404 483.435 75.404C485.723 75.404 487.703 76.504 489.375 78.704C491.047 80.816 491.883 83.324 491.883 86.228C491.883 86.844 491.839 87.46 491.751 88.076C494.039 87.724 496.811 85.876 500.067 82.532C503.059 79.364 505.787 77.78 508.251 77.78C509.131 77.78 510.055 77.912 511.023 78.176C514.719 79.672 516.567 81.124 516.567 82.532C516.567 83.236 516.259 83.984 515.643 84.776C513.971 87.152 510.891 90.188 506.403 93.884C502.003 97.492 498.879 100.66 497.031 103.388C496.415 104.356 496.019 105.94 495.843 108.14C495.755 110.34 495.447 111.88 494.919 112.76C494.479 113.552 494.259 114.52 494.259 115.664C494.259 117.512 494.963 119.36 496.371 121.208C497.515 122.616 498.087 124.42 498.087 126.62C498.087 129.876 497.075 132.472 495.051 134.408C493.731 136.52 491.751 137.576 489.111 137.576C486.911 137.576 485.151 136.74 483.831 135.068C482.335 134.1 481.675 132.12 481.851 129.128C482.203 121.296 481.543 110.516 479.871 96.788Z" fill="#201029"/>
<path d="M518.711 110.384C518.711 104.84 519.327 101.012 520.559 98.9C522.759 96.612 525.399 95.468 528.479 95.468C532.175 95.468 534.023 97.36 534.023 101.144C534.023 102.728 533.583 104.356 532.703 106.028C531.823 107.612 531.383 109.636 531.383 112.1C531.383 116.852 533.099 119.888 536.531 121.208C537.675 121.648 538.907 121.868 540.227 121.868C543.747 121.868 545.903 120.592 546.695 118.04C548.015 114.168 548.675 110.076 548.675 105.764C548.675 100.132 547.531 93.576 545.243 86.096C542.955 79.76 540.711 73.38 538.511 66.956C537.895 65.284 538.071 63.568 539.039 61.808C539.743 60.664 541.151 59.96 543.263 59.696C545.463 59.344 546.827 58.772 547.355 57.98C547.883 58.508 549.115 58.948 551.051 59.3C552.459 59.652 553.163 60.268 553.163 61.148C553.691 65.46 555.583 73.204 558.839 84.38C561.567 94.06 562.931 101.672 562.931 107.216C562.931 112.32 562.007 116.984 560.159 121.208C557.079 128.248 550.347 131.768 539.963 131.768C536.795 131.768 533.319 131.46 529.535 130.844C524.959 129.964 521.879 127.368 520.295 123.056C519.239 120.152 518.711 115.928 518.711 110.384Z" fill="#201029"/>
<path d="M601.187 140.48C600.483 140.04 599.735 139.072 598.943 137.576C598.239 136.344 597.579 135.728 596.963 135.728C592.299 134.936 587.591 134.144 582.839 133.352C577.647 132.032 573.951 129.48 571.751 125.696C570.343 123.848 569.639 121.384 569.639 118.304C569.639 113.816 570.739 110.12 572.939 107.216C578.219 100.088 585.963 96.524 596.171 96.524C600.571 96.524 602.683 96.656 602.507 96.92C603.211 95.864 603.563 94.368 603.563 92.432C603.563 90.144 602.903 88.868 601.583 88.604C600.263 88.252 598.943 88.076 597.623 88.076C595.335 88.076 592.783 88.648 589.967 89.792C587.239 90.848 584.555 91.86 581.915 92.828C581.475 93.004 581.079 93.092 580.727 93.092C579.319 93.092 578.175 92.08 577.295 90.056C576.591 88.472 576.239 86.756 576.239 84.908C576.239 83.764 576.371 83.06 576.635 82.796C582.443 78.836 588.999 76.856 596.303 76.856C603.959 76.856 609.107 79.584 611.747 85.04C613.155 88.032 613.859 91.288 613.859 94.808C613.859 97.712 613.287 101.804 612.143 107.084C610.823 112.892 610.031 117.116 609.767 119.756C609.327 126.356 608.887 130.844 608.447 133.22C607.391 138.588 605.719 141.272 603.431 141.272C602.727 141.272 601.979 141.008 601.187 140.48ZM598.811 124.508C599.075 123.276 599.647 121.076 600.527 117.908C601.319 115.444 601.715 113.42 601.715 111.836C601.715 109.988 601.319 108.14 600.527 106.292C596.039 107.26 591.595 108.184 587.195 109.064C582.003 110.56 579.363 113.64 579.275 118.304C579.187 120.328 581.123 122.044 585.083 123.452C588.515 124.772 591.947 125.432 595.379 125.432C597.403 125.432 598.547 125.124 598.811 124.508Z" fill="#201029"/>
<path d="M616.039 95.072C616.039 86.624 618.943 82.4 624.751 82.4C625.807 82.4 626.951 82.576 628.183 82.928C630.647 83.632 631.879 85.304 631.879 87.944C631.879 88.824 631.703 90.232 631.351 92.168C631.087 94.104 630.955 95.512 630.955 96.392C630.955 98.152 631.307 99.56 632.011 100.616C633.771 99.032 635.663 96.304 637.687 92.432C640.063 88.032 641.823 85.172 642.967 83.852C645.079 81.212 647.543 79.892 650.359 79.892C651.767 79.892 653.307 80.244 654.979 80.948L657.619 83.456C657.971 84.864 658.323 87.46 658.675 91.244C659.027 94.412 659.555 96.876 660.259 98.636C663.251 95.292 666.199 91.948 669.103 88.604C672.975 84.996 676.671 83.192 680.191 83.192C681.863 83.192 683.535 83.5 685.207 84.116C686.527 84.996 687.319 86.492 687.583 88.604C687.671 90.364 687.759 92.168 687.847 94.016C688.815 101.144 689.299 107.524 689.299 113.156C689.299 123.276 687.715 132.428 684.547 140.612C683.755 143.34 681.511 144.704 677.815 144.704C675.791 144.704 673.855 144.176 672.007 143.12C671.655 143.12 671.391 142.636 671.215 141.668C671.039 140.524 671.083 139.512 671.347 138.632C673.987 131.504 675.307 123.584 675.307 114.872C675.307 109.944 674.867 104.752 673.987 99.296C673.987 98.68 673.811 98.372 673.459 98.372C672.403 98.372 671.479 99.12 670.687 100.616C666.199 107.92 662.063 116.852 658.279 127.412C657.663 128.732 656.431 129.92 654.583 130.976C652.823 132.032 651.063 132.56 649.303 132.56C647.191 132.56 645.651 131.724 644.683 130.052C643.715 128.292 643.231 126.224 643.231 123.848C643.231 122.264 643.495 119.756 644.023 116.324C644.551 112.892 644.815 110.296 644.815 108.536C644.815 106.336 644.507 104.356 643.891 102.596C642.483 105.06 640.239 109.724 637.159 116.588C634.607 122.396 632.275 126.884 630.163 130.052C628.755 131.988 626.643 132.956 623.827 132.956C620.923 132.956 619.031 131.944 618.151 129.92C617.359 127.808 616.831 125.256 616.567 122.264C616.391 120.064 616.347 117.248 616.435 113.816C616.611 108.624 616.699 105.72 616.699 105.104C616.699 103.96 616.567 102.288 616.303 100.088C616.127 97.8 616.039 96.128 616.039 95.072Z" fill="#201029"/>
</svg>
