<svg width="707" height="211" viewBox="0 0 707 211" fill="none" xmlns="http://www.w3.org/2000/svg">
<path opacity="0.8" fill-rule="evenodd" clip-rule="evenodd" d="M165.9 136.921C189.136 134.425 207.23 114.751 207.23 90.8519C207.23 65.2612 186.485 44.5159 160.895 44.5159C139.574 44.5159 121.617 58.9152 116.218 78.5192C127.242 75.5541 141.208 74.1045 154.318 76.5027C164.835 111.113 167.157 127.132 165.9 136.921ZM138.549 131.453C127.521 125.371 119.236 114.926 116.021 102.445C125.351 99.4015 139.545 97.2009 152.524 97.4286C155.812 107.892 158.204 118.653 157.606 127.024C156.643 127.181 155.689 127.332 154.747 127.481C148.577 128.456 142.915 129.351 138.549 131.453Z" fill="#E09914"/>
<g opacity="0.8">
<mask id="path-2-inside-1_2_2" fill="white">
<path fill-rule="evenodd" clip-rule="evenodd" d="M147.545 128.713C151.309 120.978 153.421 112.29 153.421 103.108C153.421 102.104 153.396 101.106 153.346 100.114C153.079 99.2181 152.805 98.3223 152.524 97.4286C135.484 97.1296 116.352 101.016 108.879 105.5C109.039 106.625 109.07 106.929 109.117 107.231C109.244 108.053 109.486 108.857 112.765 126.127C116.95 146.754 102.601 156.619 95.1273 157.815C87.6538 159.011 75.3971 156.918 74.5003 147.053C73.6035 137.188 79.5823 131.209 103.498 127.921C102.743 119.809 100.917 110.627 99.2219 102.1C98.2306 97.1144 97.2838 92.353 96.622 88.1614C101.706 81.7396 124.273 73.8808 146.531 75.5178C136.665 57.0681 117.213 44.5159 94.8284 44.5159C62.4686 44.5159 36.2358 70.7487 36.2358 103.108C36.2358 135.468 62.4686 161.701 94.8284 161.701C108.13 161.701 120.397 157.268 130.232 149.799C129.876 148.629 129.72 147.317 129.805 145.857C130.259 134.048 137.614 130.692 147.545 128.713Z"/>
</mask>
<path fill-rule="evenodd" clip-rule="evenodd" d="M147.545 128.713C151.309 120.978 153.421 112.29 153.421 103.108C153.421 102.104 153.396 101.106 153.346 100.114C153.079 99.2181 152.805 98.3223 152.524 97.4286C135.484 97.1296 116.352 101.016 108.879 105.5C109.039 106.625 109.07 106.929 109.117 107.231C109.244 108.053 109.486 108.857 112.765 126.127C116.95 146.754 102.601 156.619 95.1273 157.815C87.6538 159.011 75.3971 156.918 74.5003 147.053C73.6035 137.188 79.5823 131.209 103.498 127.921C102.743 119.809 100.917 110.627 99.2219 102.1C98.2306 97.1144 97.2838 92.353 96.622 88.1614C101.706 81.7396 124.273 73.8808 146.531 75.5178C136.665 57.0681 117.213 44.5159 94.8284 44.5159C62.4686 44.5159 36.2358 70.7487 36.2358 103.108C36.2358 135.468 62.4686 161.701 94.8284 161.701C108.13 161.701 120.397 157.268 130.232 149.799C129.876 148.629 129.72 147.317 129.805 145.857C130.259 134.048 137.614 130.692 147.545 128.713Z" fill="#201029"/>
<path d="M147.545 128.713L147.741 129.694L148.227 129.597L148.444 129.151L147.545 128.713ZM153.346 100.114L154.345 100.064L154.339 99.9444L154.304 99.8295L153.346 100.114ZM152.524 97.4286L153.478 97.1288L153.262 96.4414L152.542 96.4287L152.524 97.4286ZM108.879 105.5L108.364 104.643L107.795 104.984L107.889 105.641L108.879 105.5ZM109.117 107.231L110.105 107.078L110.105 107.078L109.117 107.231ZM112.765 126.127L111.782 126.314L111.785 126.326L112.765 126.127ZM74.5003 147.053L75.4962 146.962L75.4962 146.962L74.5003 147.053ZM103.498 127.921L103.634 128.911L104.582 128.781L104.493 127.828L103.498 127.921ZM99.2219 102.1L100.203 101.905L100.203 101.905L99.2219 102.1ZM96.622 88.1614L95.838 87.5407L95.5659 87.8844L95.6342 88.3173L96.622 88.1614ZM146.531 75.5178L146.458 76.5151L148.27 76.6484L147.413 75.0463L146.531 75.5178ZM130.232 149.799L130.837 150.596L131.391 150.175L131.189 149.508L130.232 149.799ZM129.805 145.857L130.803 145.915L130.803 145.905L130.804 145.896L129.805 145.857ZM152.421 103.108C152.421 112.135 150.345 120.673 146.646 128.275L148.444 129.151C152.273 121.282 154.421 112.444 154.421 103.108H152.421ZM152.347 100.165C152.396 101.14 152.421 102.121 152.421 103.108H154.421C154.421 102.088 154.395 101.073 154.345 100.064L152.347 100.165ZM154.304 99.8295C154.036 98.9279 153.76 98.0271 153.478 97.1288L151.57 97.7284C151.85 98.6174 152.122 99.5083 152.387 100.399L154.304 99.8295ZM152.542 96.4287C143.946 96.2779 134.834 97.1822 126.927 98.6883C119.051 100.189 112.257 102.307 108.364 104.643L109.393 106.358C112.974 104.209 119.483 102.142 127.301 100.653C135.088 99.1697 144.063 98.2803 152.507 98.4284L152.542 96.4287ZM107.889 105.641C108.043 106.72 108.083 107.086 108.129 107.384L110.105 107.078C110.058 106.772 110.036 106.53 109.869 105.359L107.889 105.641ZM108.129 107.384C108.259 108.226 108.512 109.087 111.782 126.314L113.747 125.94C110.46 108.627 110.229 107.879 110.105 107.078L108.129 107.384ZM111.785 126.326C113.821 136.362 111.343 143.688 107.526 148.648C103.675 153.65 98.4416 156.272 94.9693 156.827L95.2853 158.802C99.2865 158.162 104.965 155.253 109.111 149.868C113.29 144.439 115.894 136.519 113.745 125.928L111.785 126.326ZM94.9693 156.827C91.3729 157.403 86.6256 157.18 82.7116 155.65C78.8255 154.131 75.8994 151.397 75.4962 146.962L73.5044 147.143C73.9981 152.574 77.6486 155.819 81.9835 157.513C86.2904 159.197 91.4081 159.423 95.2853 158.802L94.9693 156.827ZM75.4962 146.962C75.2817 144.602 75.4853 142.549 76.2168 140.739C76.9445 138.939 78.2234 137.308 80.2776 135.833C84.4373 132.846 91.6981 130.552 103.634 128.911L103.361 126.93C91.3819 128.577 83.6956 130.917 79.1112 134.208C76.7934 135.872 75.2511 137.791 74.3626 139.989C73.478 142.178 73.2706 144.571 73.5044 147.143L75.4962 146.962ZM104.493 127.828C103.733 119.655 101.896 110.419 100.203 101.905L98.2411 102.295C99.939 110.834 101.753 119.963 102.502 128.013L104.493 127.828ZM100.203 101.905C99.2103 96.914 98.2679 92.1735 97.6098 88.0054L95.6342 88.3173C96.2998 92.5325 97.2508 97.3148 98.2411 102.295L100.203 101.905ZM97.4061 88.7821C98.5428 87.3462 100.753 85.7301 103.888 84.138C106.997 82.5587 110.928 81.0473 115.409 79.7798C124.373 77.244 135.461 75.7064 146.458 76.5151L146.605 74.5205C135.343 73.6923 124.019 75.2655 114.864 77.8553C110.285 79.1506 106.229 80.7056 102.982 82.3548C99.7602 83.9912 97.2432 85.7657 95.838 87.5407L97.4061 88.7821ZM94.8284 45.5159C116.829 45.5159 135.951 57.852 145.65 75.9894L147.413 75.0463C137.38 56.2842 117.596 43.5159 94.8284 43.5159V45.5159ZM37.2358 103.108C37.2358 71.301 63.0209 45.5159 94.8284 45.5159V43.5159C61.9163 43.5159 35.2358 70.1964 35.2358 103.108H37.2358ZM94.8284 160.701C63.0209 160.701 37.2358 134.916 37.2358 103.108H35.2358C35.2358 136.021 61.9163 162.701 94.8284 162.701V160.701ZM129.627 149.003C119.96 156.344 107.905 160.701 94.8284 160.701V162.701C108.356 162.701 120.834 158.192 130.837 150.596L129.627 149.003ZM131.189 149.508C130.87 148.461 130.725 147.268 130.803 145.915L128.806 145.8C128.716 147.365 128.882 148.796 129.275 150.09L131.189 149.508ZM130.804 145.896C131.022 140.221 132.879 136.722 135.754 134.373C138.689 131.976 142.801 130.678 147.741 129.694L147.35 127.732C142.358 128.727 137.827 130.097 134.488 132.824C131.089 135.601 129.041 139.684 128.805 145.819L130.804 145.896Z" fill="black" mask="url(#path-2-inside-1_2_2)"/>
</g>
<path opacity="0.8" fill-rule="evenodd" clip-rule="evenodd" d="M116.651 195.78C157.761 195.78 191.088 162.454 191.088 121.344C191.088 80.2338 157.761 46.9074 116.651 46.9074C75.541 46.9074 42.2146 80.2338 42.2146 121.344C42.2146 162.454 75.541 195.78 116.651 195.78ZM103.498 127.921C79.5823 131.209 73.6035 137.188 74.5003 147.053C75.3972 156.918 87.6538 159.011 95.1273 157.815C102.601 156.619 116.95 146.754 112.765 126.127C109.486 108.857 109.244 108.053 109.117 107.231C109.07 106.929 109.039 106.625 108.879 105.5C116.352 101.016 135.484 97.1296 152.524 97.4286C155.812 107.892 158.204 118.653 157.606 127.024C156.643 127.181 155.689 127.332 154.747 127.481C141.359 129.597 130.363 131.334 129.805 145.857C128.908 161.402 155.215 160.206 161.193 149.743C167.172 139.28 170.76 130.611 154.318 76.5027C129.805 72.0185 102.302 80.9868 96.622 88.1614C97.2839 92.353 98.2306 97.1144 99.2219 102.1C100.917 110.627 102.743 119.809 103.498 127.921Z" fill="#42B2B8"/>
<circle opacity="0.8" cx="208.127" cy="136.291" r="6.27778" fill="#E8729E"/>
<circle opacity="0.8" cx="44.9051" cy="183.524" r="6.87566" fill="#E09914"/>
<circle opacity="0.8" cx="23.0823" cy="121.643" r="5.38095" fill="#201029"/>
<circle opacity="0.8" cx="231.146" cy="114.468" r="12.5556" fill="#42B2B8"/>
<circle opacity="0.8" cx="132.196" cy="26.2804" r="11.0608" fill="#E8729E"/>
<path opacity="0.8" fill-rule="evenodd" clip-rule="evenodd" d="M106.826 151.018C107.806 173.924 126.686 192.193 149.834 192.193C173.608 192.193 192.881 172.92 192.881 149.145C192.881 129.929 180.289 113.653 162.907 108.119C168.911 134.851 165.746 141.777 161.193 149.743C155.215 160.206 128.908 161.402 129.805 145.857C130.363 131.334 141.359 129.597 154.747 127.481C155.689 127.332 156.643 127.181 157.606 127.024C158.033 121.047 156.936 113.85 155.076 106.414C153.358 106.205 151.608 106.098 149.834 106.098C134.169 106.098 120.458 114.465 112.927 126.974C114.936 138.075 111.524 145.976 106.826 151.018Z" fill="#E8729E"/>
<path d="M278.605 95.324C278.957 91.364 279.265 88.68 279.529 87.272C280.057 84.28 280.937 81.816 282.169 79.88C281.729 79.704 280.893 79.484 279.661 79.22C278.429 78.956 277.593 78.692 277.153 78.428C276.185 77.548 275.701 76.316 275.701 74.732C275.701 71.652 276.669 69.716 278.605 68.924C284.941 66.46 291.453 65.228 298.141 65.228C313.893 65.228 326.873 71.08 337.081 82.784C337.169 84.016 337.213 85.16 337.213 86.216C337.213 95.808 331.933 103.816 321.373 110.24C316.885 112.968 307.249 117.016 292.465 122.384C292.201 124.584 292.421 127.488 293.125 131.096C293.917 135.144 294.313 137.916 294.313 139.412C294.313 140.644 294.181 141.788 293.917 142.844C293.301 144.78 292.069 146.408 290.221 147.728C288.461 149.048 286.437 149.708 284.149 149.708C283.269 149.708 282.389 149.62 281.509 149.444C281.509 149.444 280.541 148.432 278.605 146.408C277.637 139.016 277.153 131.228 277.153 123.044C277.153 115.124 277.637 105.884 278.605 95.324ZM293.125 92.288C293.125 93.432 292.905 95.28 292.465 97.832C292.025 100.296 291.805 102.012 291.805 102.98C291.805 105.18 292.509 106.544 293.917 107.072C295.325 107.512 296.821 107.732 298.405 107.732C303.333 107.732 308.261 105.796 313.189 101.924C318.117 98.052 321.197 93.652 322.429 88.724C312.133 80.98 303.817 77.108 297.481 77.108C295.809 77.108 294.137 77.328 292.465 77.768C292.377 77.768 292.773 78.208 293.653 79.088C294.797 80.232 295.369 81.244 295.369 82.124C295.369 83.356 294.973 85.072 294.181 87.272C293.477 89.472 293.125 91.144 293.125 92.288Z" fill="white"/>
<path d="M371.218 152.48C370.514 152.04 369.766 151.072 368.974 149.576C368.27 148.344 367.61 147.728 366.994 147.728C362.33 146.936 357.622 146.144 352.87 145.352C347.678 144.032 343.982 141.48 341.782 137.696C340.374 135.848 339.67 133.384 339.67 130.304C339.67 125.816 340.77 122.12 342.97 119.216C348.25 112.088 355.994 108.524 366.202 108.524C370.602 108.524 372.714 108.656 372.538 108.92C373.242 107.864 373.594 106.368 373.594 104.432C373.594 102.144 372.934 100.868 371.614 100.604C370.294 100.252 368.974 100.076 367.654 100.076C365.366 100.076 362.814 100.648 359.998 101.792C357.27 102.848 354.586 103.86 351.946 104.828C351.506 105.004 351.11 105.092 350.758 105.092C349.35 105.092 348.206 104.08 347.326 102.056C346.622 100.472 346.27 98.756 346.27 96.908C346.27 95.764 346.402 95.06 346.666 94.796C352.474 90.836 359.03 88.856 366.334 88.856C373.99 88.856 379.138 91.584 381.778 97.04C383.186 100.032 383.89 103.288 383.89 106.808C383.89 109.712 383.318 113.804 382.174 119.084C380.854 124.892 380.062 129.116 379.798 131.756C379.358 138.356 378.918 142.844 378.478 145.22C377.422 150.588 375.75 153.272 373.462 153.272C372.758 153.272 372.01 153.008 371.218 152.48ZM368.842 136.508C369.106 135.276 369.678 133.076 370.558 129.908C371.35 127.444 371.746 125.42 371.746 123.836C371.746 121.988 371.35 120.14 370.558 118.292C366.07 119.26 361.626 120.184 357.226 121.064C352.034 122.56 349.394 125.64 349.306 130.304C349.218 132.328 351.154 134.044 355.114 135.452C358.546 136.772 361.978 137.432 365.41 137.432C367.434 137.432 368.578 137.124 368.842 136.508Z" fill="white"/>
<path d="M389.238 104.3C389.326 103.772 389.106 103.024 388.578 102.056C388.05 101.088 387.786 100.384 387.786 99.944C387.786 99.504 387.874 99.152 388.05 98.888C389.194 97.92 389.81 96.028 389.898 93.212C389.986 90.308 390.778 88.372 392.274 87.404C394.298 85.996 396.278 85.292 398.214 85.292C400.062 85.292 401.514 85.996 402.57 87.404C403.274 88.02 403.67 89.252 403.758 91.1C403.846 92.86 404.066 93.828 404.418 94.004C421.93 95.94 430.202 101.792 429.234 111.56C428.442 118.776 424.306 123.792 416.826 126.608C410.314 128.368 403.802 130.128 397.29 131.888C396.322 136.552 395.838 140.468 395.838 143.636C395.838 147.684 396.938 153.448 399.138 160.928C399.226 161.28 399.798 162.16 400.854 163.568C401.91 164.976 402.438 166.12 402.438 167C402.438 168.848 400.634 169.772 397.026 169.772C395.266 169.772 393.682 169.508 392.274 168.98C390.162 168.188 388.666 166.34 387.786 163.436C387.346 162.116 386.862 159.344 386.334 155.12C385.806 151.248 385.542 147.2 385.542 142.976C385.542 137.608 385.982 131.14 386.862 123.572C387.654 117.148 388.446 110.724 389.238 104.3ZM403.23 104.96C402.086 106.104 401.074 107.952 400.194 110.504C399.402 112.968 399.006 115.212 399.006 117.236C399.006 119.348 399.446 120.624 400.326 121.064C401.206 121.416 402.306 121.592 403.626 121.592C406.53 121.592 409.302 120.624 411.942 118.688C414.67 116.664 416.254 113.98 416.694 110.636C417.134 107.644 415.638 105.752 412.206 104.96C410.358 104.168 408.554 103.772 406.794 103.772C405.122 103.772 403.934 104.168 403.23 104.96Z" fill="white"/>
<path d="M432.105 112.484C432.017 106.5 433.777 101.528 437.385 97.568C440.993 93.52 445.613 91.496 451.245 91.496C457.229 91.496 462.509 93.784 467.085 98.36C471.749 102.848 474.037 108.128 473.949 114.2C473.157 116.664 469.857 119.612 464.049 123.044C456.833 127.356 452.829 129.908 452.037 130.7C450.541 131.404 449.793 132.152 449.793 132.944C449.793 134.352 450.761 135.628 452.697 136.772C454.633 137.828 456.349 138.356 457.845 138.356C460.749 138.356 464.929 136.948 470.385 134.132C472.057 135.364 472.893 137.036 472.893 139.148C472.893 140.82 472.365 142.36 471.309 143.768C470.253 145.176 468.889 146.012 467.217 146.276C461.585 147.156 458.021 147.596 456.525 147.596C453.533 147.596 450.849 147.068 448.473 146.012C438.001 141.348 432.545 130.172 432.105 112.484ZM446.493 119.216C454.325 118.864 459.077 116.092 460.749 110.9C461.101 110.196 461.277 109.492 461.277 108.788C461.277 106.94 460.309 105.444 458.373 104.3C456.437 103.156 454.281 102.584 451.905 102.584C450.145 102.584 448.649 102.936 447.417 103.64C444.865 104.96 443.589 107.732 443.589 111.956C443.589 116.62 444.557 119.04 446.493 119.216Z" fill="white"/>
<path d="M479.871 108.788C479.695 107.38 478.991 105.048 477.759 101.792C476.615 98.8 476.043 96.512 476.043 94.928C476.043 92.816 476.835 91.056 478.419 89.648C480.003 88.152 481.675 87.404 483.435 87.404C485.723 87.404 487.703 88.504 489.375 90.704C491.047 92.816 491.883 95.324 491.883 98.228C491.883 98.844 491.839 99.46 491.751 100.076C494.039 99.724 496.811 97.876 500.067 94.532C503.059 91.364 505.787 89.78 508.251 89.78C509.131 89.78 510.055 89.912 511.023 90.176C514.719 91.672 516.567 93.124 516.567 94.532C516.567 95.236 516.259 95.984 515.643 96.776C513.971 99.152 510.891 102.188 506.403 105.884C502.003 109.492 498.879 112.66 497.031 115.388C496.415 116.356 496.019 117.94 495.843 120.14C495.755 122.34 495.447 123.88 494.919 124.76C494.479 125.552 494.259 126.52 494.259 127.664C494.259 129.512 494.963 131.36 496.371 133.208C497.515 134.616 498.087 136.42 498.087 138.62C498.087 141.876 497.075 144.472 495.051 146.408C493.731 148.52 491.751 149.576 489.111 149.576C486.911 149.576 485.151 148.74 483.831 147.068C482.335 146.1 481.675 144.12 481.851 141.128C482.203 133.296 481.543 122.516 479.871 108.788Z" fill="white"/>
<path d="M518.711 122.384C518.711 116.84 519.327 113.012 520.559 110.9C522.759 108.612 525.399 107.468 528.479 107.468C532.175 107.468 534.023 109.36 534.023 113.144C534.023 114.728 533.583 116.356 532.703 118.028C531.823 119.612 531.383 121.636 531.383 124.1C531.383 128.852 533.099 131.888 536.531 133.208C537.675 133.648 538.907 133.868 540.227 133.868C543.747 133.868 545.903 132.592 546.695 130.04C548.015 126.168 548.675 122.076 548.675 117.764C548.675 112.132 547.531 105.576 545.243 98.096C542.955 91.76 540.711 85.38 538.511 78.956C537.895 77.284 538.071 75.568 539.039 73.808C539.743 72.664 541.151 71.96 543.263 71.696C545.463 71.344 546.827 70.772 547.355 69.98C547.883 70.508 549.115 70.948 551.051 71.3C552.459 71.652 553.163 72.268 553.163 73.148C553.691 77.46 555.583 85.204 558.839 96.38C561.567 106.06 562.931 113.672 562.931 119.216C562.931 124.32 562.007 128.984 560.159 133.208C557.079 140.248 550.347 143.768 539.963 143.768C536.795 143.768 533.319 143.46 529.535 142.844C524.959 141.964 521.879 139.368 520.295 135.056C519.239 132.152 518.711 127.928 518.711 122.384Z" fill="white"/>
<path d="M601.187 152.48C600.483 152.04 599.735 151.072 598.943 149.576C598.239 148.344 597.579 147.728 596.963 147.728C592.299 146.936 587.591 146.144 582.839 145.352C577.647 144.032 573.951 141.48 571.751 137.696C570.343 135.848 569.639 133.384 569.639 130.304C569.639 125.816 570.739 122.12 572.939 119.216C578.219 112.088 585.963 108.524 596.171 108.524C600.571 108.524 602.683 108.656 602.507 108.92C603.211 107.864 603.563 106.368 603.563 104.432C603.563 102.144 602.903 100.868 601.583 100.604C600.263 100.252 598.943 100.076 597.623 100.076C595.335 100.076 592.783 100.648 589.967 101.792C587.239 102.848 584.555 103.86 581.915 104.828C581.475 105.004 581.079 105.092 580.727 105.092C579.319 105.092 578.175 104.08 577.295 102.056C576.591 100.472 576.239 98.756 576.239 96.908C576.239 95.764 576.371 95.06 576.635 94.796C582.443 90.836 588.999 88.856 596.303 88.856C603.959 88.856 609.107 91.584 611.747 97.04C613.155 100.032 613.859 103.288 613.859 106.808C613.859 109.712 613.287 113.804 612.143 119.084C610.823 124.892 610.031 129.116 609.767 131.756C609.327 138.356 608.887 142.844 608.447 145.22C607.391 150.588 605.719 153.272 603.431 153.272C602.727 153.272 601.979 153.008 601.187 152.48ZM598.811 136.508C599.075 135.276 599.647 133.076 600.527 129.908C601.319 127.444 601.715 125.42 601.715 123.836C601.715 121.988 601.319 120.14 600.527 118.292C596.039 119.26 591.595 120.184 587.195 121.064C582.003 122.56 579.363 125.64 579.275 130.304C579.187 132.328 581.123 134.044 585.083 135.452C588.515 136.772 591.947 137.432 595.379 137.432C597.403 137.432 598.547 137.124 598.811 136.508Z" fill="white"/>
<path d="M616.039 107.072C616.039 98.624 618.943 94.4 624.751 94.4C625.807 94.4 626.951 94.576 628.183 94.928C630.647 95.632 631.879 97.304 631.879 99.944C631.879 100.824 631.703 102.232 631.351 104.168C631.087 106.104 630.955 107.512 630.955 108.392C630.955 110.152 631.307 111.56 632.011 112.616C633.771 111.032 635.663 108.304 637.687 104.432C640.063 100.032 641.823 97.172 642.967 95.852C645.079 93.212 647.543 91.892 650.359 91.892C651.767 91.892 653.307 92.244 654.979 92.948L657.619 95.456C657.971 96.864 658.323 99.46 658.675 103.244C659.027 106.412 659.555 108.876 660.259 110.636C663.251 107.292 666.199 103.948 669.103 100.604C672.975 96.996 676.671 95.192 680.191 95.192C681.863 95.192 683.535 95.5 685.207 96.116C686.527 96.996 687.319 98.492 687.583 100.604C687.671 102.364 687.759 104.168 687.847 106.016C688.815 113.144 689.299 119.524 689.299 125.156C689.299 135.276 687.715 144.428 684.547 152.612C683.755 155.34 681.511 156.704 677.815 156.704C675.791 156.704 673.855 156.176 672.007 155.12C671.655 155.12 671.391 154.636 671.215 153.668C671.039 152.524 671.083 151.512 671.347 150.632C673.987 143.504 675.307 135.584 675.307 126.872C675.307 121.944 674.867 116.752 673.987 111.296C673.987 110.68 673.811 110.372 673.459 110.372C672.403 110.372 671.479 111.12 670.687 112.616C666.199 119.92 662.063 128.852 658.279 139.412C657.663 140.732 656.431 141.92 654.583 142.976C652.823 144.032 651.063 144.56 649.303 144.56C647.191 144.56 645.651 143.724 644.683 142.052C643.715 140.292 643.231 138.224 643.231 135.848C643.231 134.264 643.495 131.756 644.023 128.324C644.551 124.892 644.815 122.296 644.815 120.536C644.815 118.336 644.507 116.356 643.891 114.596C642.483 117.06 640.239 121.724 637.159 128.588C634.607 134.396 632.275 138.884 630.163 142.052C628.755 143.988 626.643 144.956 623.827 144.956C620.923 144.956 619.031 143.944 618.151 141.92C617.359 139.808 616.831 137.256 616.567 134.264C616.391 132.064 616.347 129.248 616.435 125.816C616.611 120.624 616.699 117.72 616.699 117.104C616.699 115.96 616.567 114.288 616.303 112.088C616.127 109.8 616.039 108.128 616.039 107.072Z" fill="white"/>
</svg>
